/* XPM */
static char *wabi64[] = {
/* columns rows colors chars-per-pixel */
"64 64 2 1 ",
"  c #0080FF",
". c None",
/* pixels */
"................................................................",
"................................................................",
"................................................................",
"................................................................",
"................................................................",
"................................................................",
"................................................................",
"................................................................",
"................................................................",
"................................................................",
"................................................................",
"................................................................",
"................................................................",
"................................................................",
"................................................................",
"................................................................",
"....          ....................................         .....",
".....         ...................................          .....",
"......         ................ ................          ......",
"......          ............... ................         .......",
".......          .............. ...............          .......",
"........         .............. ..............          ........",
"........          .............  .............         .........",
".........         ............   .............         .........",
"..........         ...........   ............         ..........",
"..........         ...........   ...........         ...........",
"...........         ..........   ...........         ...........",
"...........          .........    .........         ............",
"............         .........    ........          ............",
".............         .......     ........         .............",
".............          ......     .......         ..............",
"..............          .....      .....          ..............",
"...............         .....      .....         ...............",
"...............         .....      .....        ................",
"................        ....       .....        ................",
".................       ....       .....       .................",
".................       ....        ....      ..................",
"..................      ....        ....      ..................",
"...................     ....        ....     ...................",
"...................     ...         ....    ....................",
"....................    ...         ....    ....................",
"....................    ...          ...   .....................",
".....................   ...          ...   .....................",
"......................  ...          ...  ......................",
"......................  ..           ... .......................",
"....................... ..            .. .......................",
"..........................            ..........................",
"..........................            ..........................",
"................................................................",
"................................................................",
"................................................................",
"................................................................",
"................................................................",
"................................................................",
"................................................................",
"................................................................",
"................................................................",
"................................................................",
"................................................................",
"................................................................",
"................................................................",
"................................................................",
"................................................................",
"................................................................"
};
