/* XPM */
static char *wabi32[] = {
/* columns rows colors chars-per-pixel */
"32 32 30 1 ",
"  c #007EFD",
". c #007FFD",
"X c #007FFF",
"o c #0080FD",
"O c #0081FD",
"+ c #0082FD",
"@ c #0083FD",
"# c #0080FF",
"$ c #0081FF",
"% c #0082FF",
"& c #0083FF",
"* c #0084FD",
"= c #0085FD",
"- c #0084FF",
"; c #0085FF",
": c #0086FF",
"> c #0087FF",
", c #0088FD",
"< c #008AFD",
"1 c #0088FF",
"2 c #0089FF",
"3 c #008AFF",
"4 c #008BFF",
"5 c #008CFF",
"6 c #008DFF",
"7 c #008EFF",
"8 c #0090FF",
"9 c #0091FF",
"0 c #0092FF",
"q c None",
/* pixels */
"qqqqqqqqqqqqqqqqqqqqqqqqqqqqqqqq",
"qqqqqqqqqqqqqqqqqqqqqqqqqqqqqqqq",
"qqqqqqqqqqqqqqqqqqqqqqqqqqqqqqqq",
"qqqqqqqqqqqqqqqqqqqqqqqqqqqqqqqq",
"qqqqqqqqqqqqqqqqqqqqqqqqqqqqqqqq",
"qqqqqqqqqqqqqqqqqqqqqqqqqqqqqqqq",
"qqqqqqqqqqqqqqqqqqqqqqqqqqqqqqqq",
"qq<qqqqqqqqqqqqqqqqqqqqqqqqqq<qq",
"qq<6<66qqqqqqqqqqqqqqqqqq06<0#qq",
"qqq<##>#qqqqqqq qqqqqqqq>###<qqq",
"qqq#># 6#qqqqqq  qqqqqq#<##<#qqq",
"qqqq>###<qqqqqq #qqqqqq< #>#qqqq",
"qqqq 6 #> qqqqq> qqqqq#>##<qqqqq",
"qqqqq#<# 6 qqqq<>qqqq#<##< qqqqq",
"qqqqqq>###<qqq#<<qqqq<##>#qqqqqq",
"qqqqqq 6##< qq#><#qq#>##<qqqqqqq",
"qqqqqqq#>##oqq >>#qq<# <#qqqqqqq",
"qqqqqqqq<#>oqq####qq>#>#qqqqqqqq",
"qqqqqqqq <##qq<##>qq> 6 qqqqqqqq",
"qqqqqqqqq#<#q#<# 6qq><#qqqqqqqqq",
"qqqqqqqqqq6#q >##<#q><qqqqqqqqqq",
"qqqqqqqqqqo#q ## > q6 qqqqqqqqqq",
"qqqqqqqqqqq#q>#####q#qqqqqqqqqqq",
"qqqqqqqqqqqq#6><><< qqqqqqqqqqqq",
"qqqqqqqqqqqqqqqqqqqqqqqqqqqqqqqq",
"qqqqqqqqqqqqqqqqqqqqqqqqqqqqqqqq",
"qqqqqqqqqqqqqqqqqqqqqqqqqqqqqqqq",
"qqqqqqqqqqqqqqqqqqqqqqqqqqqqqqqq",
"qqqqqqqqqqqqqqqqqqqqqqqqqqqqqqqq",
"qqqqqqqqqqqqqqqqqqqqqqqqqqqqqqqq",
"qqqqqqqqqqqqqqqqqqqqqqqqqqqqqqqq",
"qqqqqqqqqqqqqqqqqqqqqqqqqqqqqqqq"
};
