/* XPM */
static char *wavi16[] = {
/* columns rows colors chars-per-pixel */
"16 16 18 1 ",
"  c #007CFD",
". c #007EFD",
"X c #007FFD",
"o c #0080FD",
"O c #0081FD",
"+ c #0083FD",
"@ c #0082FF",
"# c #0084FD",
"$ c #0085FF",
"% c #0086FF",
"& c #0087FF",
"* c #0088FF",
"= c #0089FF",
"- c #008CFF",
"; c #008EFF",
": c #008FFF",
"> c #0094FF",
", c None",
/* pixels */
",,,,,,,,,,,,,,,,",
",,,,,,,,,,,,,,,,",
",,,,,,,,,,,,,,,,",
",,,,,,,,,,,,,,,,",
",O>O,,,,,,,,O> ,",
",,%:,,,,,,, >O,,",
",, :O,, O,,%:O,,",
",,,O> ,O , > ,,,",
",,,,=O, O,O=,,,,",
",,,,OO,%O,% ,,,,",
",,,,,OO=% O,,,,,",
",,,,,,O%%O,,,,,,",
",,,,,,,,,,,,,,,,",
",,,,,,,,,,,,,,,,",
",,,,,,,,,,,,,,,,",
",,,,,,,,,,,,,,,,"
};
