/* XPM */
static char *wavi128[] = {
/* columns rows colors chars-per-pixel */
"128 128 2 1 ",
"  c #0080FF",
". c None",
/* pixels */
"................................................................................................................................",
"................................................................................................................................",
"................................................................................................................................",
"................................................................................................................................",
"................................................................................................................................",
"................................................................................................................................",
"................................................................................................................................",
"................................................................................................................................",
"................................................................................................................................",
"................................................................................................................................",
"................................................................................................................................",
"................................................................................................................................",
"................................................................................................................................",
"................................................................................................................................",
"................................................................................................................................",
"................................................................................................................................",
"................................................................................................................................",
"................................................................................................................................",
"................................................................................................................................",
"................................................................................................................................",
"................................................................................................................................",
"................................................................................................................................",
"................................................................................................................................",
"................................................................................................................................",
"................................................................................................................................",
"................................................................................................................................",
"................................................................................................................................",
"................................................................................................................................",
"................................................................................................................................",
"................................................................................................................................",
".....                      .........................................................................                      ......",
"......                      ................................... ....................................                     .......",
".......                     ................................... ...................................                      .......",
".......                      .................................. ..................................                      ........",
"........                      .................................  .................................                     .........",
".........                     ................................   ................................                      .........",
".........                      ...............................   ...............................                      ..........",
"..........                      ..............................   ...............................                     ...........",
"..........                      ..............................   ..............................                      ...........",
"...........                      .............................    ............................                      ............",
"............                      ...........................     ............................                      ............",
"............                      ...........................     ...........................                      .............",
".............                      ..........................     ..........................                      ..............",
"..............                      .........................     ..........................                      ..............",
"..............                      ........................       ........................                      ...............",
"...............                      .......................       ........................                     ................",
"................                     .......................       .......................                      ................",
"................                      ......................       ......................                      .................",
".................                      .....................        .....................                     ..................",
"..................                     ....................         ....................                      ..................",
"..................                      ...................         ...................                      ...................",
"...................                      ..................         ...................                     ....................",
"...................                      ..................         ..................                      ....................",
"....................                      .................          ................                      .....................",
".....................                      ...............           ................                      .....................",
".....................                      ...............           ...............                      ......................",
"......................                      ..............           ..............                      .......................",
".......................                      .............           ..............                      .......................",
".......................                      ............             ............                      ........................",
"........................                      ...........             ............                     .........................",
".........................                     ...........             ...........                      .........................",
".........................                      ..........             ..........                      ..........................",
"..........................                      .........              .........                     ...........................",
"...........................                     ........               ........                      ...........................",
"...........................                     ........               ........                     ............................",
"............................                    ........               ........                    .............................",
"............................                    ........               ........                    .............................",
".............................                   ........                .......                   ..............................",
"..............................                  .......                 .......                   ..............................",
"..............................                  .......                 .......                  ...............................",
"...............................                 .......                 .......                 ................................",
"................................                .......                 .......                 ................................",
"................................                .......                  ......                .................................",
".................................               ......                   ......               ..................................",
"..................................              ......                   ......               ..................................",
"..................................              ......                   ......              ...................................",
"...................................             ......                   ......             ....................................",
"....................................            .....                     .....             ....................................",
"....................................            .....                     .....            .....................................",
".....................................           .....                     .....           ......................................",
".....................................           .....                     .....           ......................................",
"......................................          .....                      ....          .......................................",
".......................................         ....                       ....          .......................................",
".......................................         ....                       ....         ........................................",
"........................................        ....                       ....        .........................................",
".........................................       ....                       ....        .........................................",
".........................................       ....                        ...       ..........................................",
"..........................................      ...                         ...      ...........................................",
"...........................................     ...                         ...      ...........................................",
"...........................................     ...                         ...     ............................................",
"............................................    ...                         ...    .............................................",
".............................................   ...                          ..    .............................................",
".............................................   ..                           ..   ..............................................",
"..............................................  ..                           ..  ...............................................",
"............................................... ..                           ..  ...............................................",
"............................................... ..                           .. ................................................",
".................................................                             ..................................................",
"................................................................................................................................",
"................................................................................................................................",
"................................................................................................................................",
"................................................................................................................................",
"................................................................................................................................",
"................................................................................................................................",
"................................................................................................................................",
"................................................................................................................................",
"................................................................................................................................",
"................................................................................................................................",
"................................................................................................................................",
"................................................................................................................................",
"................................................................................................................................",
"................................................................................................................................",
"................................................................................................................................",
"................................................................................................................................",
"................................................................................................................................",
"................................................................................................................................",
"................................................................................................................................",
"................................................................................................................................",
"................................................................................................................................",
"................................................................................................................................",
"................................................................................................................................",
"................................................................................................................................",
"................................................................................................................................",
"................................................................................................................................",
"................................................................................................................................",
"................................................................................................................................",
"................................................................................................................................",
"................................................................................................................................",
"................................................................................................................................"
};
